<svg width="27" height="41" viewBox="0 0 27 41" fill="none" xmlns="http://www.w3.org/2000/svg">
<g clip-path="url(#clip0_342_2381)">
<path d="M6.67057 40.5001C10.3506 40.5001 13.3372 37.5134 13.3372 33.8334V27.1667H6.67057C2.99057 27.1667 0.00390625 30.1534 0.00390625 33.8334C0.00390625 37.5134 2.99057 40.5001 6.67057 40.5001Z" fill="#0ACF83"/>
<path d="M0.00390625 20.4999C0.00390625 16.8199 2.99057 13.8333 6.67057 13.8333H13.3372V27.1666H6.67057C2.99057 27.1666 0.00390625 24.1799 0.00390625 20.4999Z" fill="#A259FF"/>
<path d="M0.00390625 7.16667C0.00390625 3.48667 2.99057 0.5 6.67057 0.5H13.3372V13.8333H6.67057C2.99057 13.8333 0.00390625 10.8467 0.00390625 7.16667Z" fill="#F24E1E"/>
<path d="M13.3359 0.5H20.0026C23.6826 0.5 26.6693 3.48667 26.6693 7.16667C26.6693 10.8467 23.6826 13.8333 20.0026 13.8333H13.3359V0.5Z" fill="#FF7262"/>
<path d="M26.6693 20.4999C26.6693 24.1799 23.6826 27.1666 20.0026 27.1666C16.3226 27.1666 13.3359 24.1799 13.3359 20.4999C13.3359 16.8199 16.3226 13.8333 20.0026 13.8333C23.6826 13.8333 26.6693 16.8199 26.6693 20.4999Z" fill="#1ABCFE"/>
</g>
<defs>
<clipPath id="clip0_342_2381">
<rect width="26.672" height="40" fill="white" transform="translate(0 0.5)"/>
</clipPath>
</defs>
</svg>
