<svg width="135" height="85" viewBox="0 0 135 85" fill="none" xmlns="http://www.w3.org/2000/svg">
<path d="M0.136 82.5L28.04 0.963997H43.08L70.152 82.5H57.352L51.016 63.044H19.528L12.936 82.5H0.136ZM22.6 53.7H48.008L35.336 15.62L22.6 53.7ZM124.322 82.5L122.786 68.356V42.692C122.786 37.6573 121.741 34.0093 119.65 31.748C117.559 29.444 114.253 28.292 109.73 28.292C107.17 28.292 104.887 28.676 102.882 29.444C100.919 30.1693 99.362 31.2787 98.21 32.772C97.1007 34.2653 96.546 36.1427 96.546 38.404H83.106C83.106 33.8813 84.2153 30.212 86.434 27.396C88.6527 24.58 91.746 22.532 95.714 21.252C99.7247 19.9293 104.397 19.268 109.73 19.268C114.722 19.268 119.117 20.1 122.914 21.764C126.711 23.3853 129.655 25.9453 131.746 29.444C133.879 32.9427 134.946 37.4653 134.946 43.012V82.5H124.322ZM103.714 84.164C98.5513 84.164 94.2633 83.268 90.85 81.476C87.4367 79.6413 84.8767 77.252 83.17 74.308C81.506 71.364 80.674 68.228 80.674 64.9C80.674 60.8467 81.698 57.5187 83.746 54.916C85.8367 52.2707 88.7167 50.308 92.386 49.028C96.0553 47.748 100.279 47.108 105.058 47.108C108.343 47.108 111.543 47.4067 114.658 48.004C117.773 48.6013 120.845 49.3907 123.874 50.372V57.732C121.399 56.836 118.647 56.132 115.618 55.62C112.631 55.0653 109.837 54.788 107.234 54.788C103.351 54.788 100.109 55.556 97.506 57.092C94.9033 58.628 93.602 61.2307 93.602 64.9C93.602 67.588 94.626 69.9133 96.674 71.876C98.722 73.796 101.965 74.756 106.402 74.756C109.645 74.756 112.503 74.0307 114.978 72.58C117.453 71.0867 119.373 69.2307 120.738 67.012C122.103 64.7933 122.786 62.5747 122.786 60.356H125.73C125.73 64.6227 124.855 68.5693 123.106 72.196C121.399 75.78 118.903 78.6813 115.618 80.9C112.333 83.076 108.365 84.164 103.714 84.164Z" fill="#1D3557"/>
</svg>
