<svg width="155" height="88" viewBox="0 0 155 88" fill="none" xmlns="http://www.w3.org/2000/svg">
<path d="M0.84 86V83.952L8.904 79.728L41.8 0.879997H48.84L81.352 79.344L89.928 83.952V86H56.136V83.952L67.4 79.472L57.928 56.432H27.08L17.736 79.6L28.488 83.952V86H0.84ZM30.024 49.392H55.112L42.568 18.544L30.024 49.392ZM112.465 87.28C108.369 87.28 104.956 86.0853 102.225 83.696C99.5797 81.2213 98.257 77.8507 98.257 73.584C98.257 69.4027 99.7503 65.8187 102.737 62.832C105.809 59.76 111.1 57.328 118.609 55.536L130.769 52.72V43.76C130.769 40.688 129.617 38.128 127.313 36.08C125.094 34.032 122.492 33.008 119.505 33.008C116.348 33.008 114.129 33.8187 112.849 35.44C111.654 37.0613 111.057 39.28 111.057 42.096V46.192L110.417 46.832H103.377C102.097 46.832 101.201 46.6187 100.689 46.192C100.262 45.68 100.049 44.656 100.049 43.12C100.049 41.2427 100.604 39.3653 101.713 37.488C102.908 35.5253 104.7 33.8187 107.089 32.368C109.649 30.7467 112.252 29.4667 114.897 28.528C117.542 27.504 120.358 26.992 123.345 26.992C126.588 26.992 129.702 27.4613 132.689 28.4C135.761 29.2533 138.236 30.7467 140.113 32.88C141.99 35.0133 142.929 37.872 142.929 41.456V77.168C143.526 77.7653 144.337 78.2773 145.361 78.704C146.47 79.1307 147.964 79.344 149.841 79.344H154.321L154.833 79.6V80.368C153.809 82.16 152.23 83.7813 150.097 85.232C148.049 86.5973 145.532 87.28 142.545 87.28C139.644 87.28 137.297 86.5973 135.505 85.232C133.713 83.7813 132.433 81.8187 131.665 79.344H130.769C128.55 81.5627 125.82 83.44 122.577 84.976C119.42 86.512 116.049 87.28 112.465 87.28ZM109.905 70.768C109.905 76.0587 113.02 78.704 119.249 78.704C121.126 78.704 122.918 78.5333 124.625 78.192C126.417 77.7653 128.465 77.0827 130.769 76.144V57.2C124.625 58.3947 120.06 59.6747 117.073 61.04C114.086 62.4053 112.124 63.8987 111.185 65.52C110.332 67.056 109.905 68.8053 109.905 70.768Z" fill="#1D3557"/>
</svg>
