<svg width="30" height="41" viewBox="0 0 30 41" fill="none" xmlns="http://www.w3.org/2000/svg">
<g clip-path="url(#clip0_342_2387)">
<mask id="mask0_342_2387" style="mask-type:luminance" maskUnits="userSpaceOnUse" x="0" y="0" width="30" height="41">
<path d="M18.7488 0.5H3.38341C1.89207 0.5 0.671875 1.72727 0.671875 3.22727V37.7727C0.671875 39.2727 1.89207 40.5 3.38341 40.5H26.8834C28.3748 40.5 29.595 39.2727 29.595 37.7727V11.4091L18.7488 0.5Z" fill="white"/>
</mask>
<g mask="url(#mask0_342_2387)">
<path d="M18.7488 0.5H3.38341C1.89207 0.5 0.671875 1.72727 0.671875 3.22727V37.7727C0.671875 39.2727 1.89207 40.5 3.38341 40.5H26.8834C28.3748 40.5 29.595 39.2727 29.595 37.7727V11.4091L23.268 6.86364L18.7488 0.5Z" fill="#4285F4"/>
</g>
<mask id="mask1_342_2387" style="mask-type:luminance" maskUnits="userSpaceOnUse" x="0" y="0" width="30" height="41">
<path d="M18.7488 0.5H3.38341C1.89207 0.5 0.671875 1.72727 0.671875 3.22727V37.7727C0.671875 39.2727 1.89207 40.5 3.38341 40.5H26.8834C28.3748 40.5 29.595 39.2727 29.595 37.7727V11.4091L18.7488 0.5Z" fill="white"/>
</mask>
<g mask="url(#mask1_342_2387)">
<path d="M19.543 10.6113L29.596 20.7204V11.4091L19.543 10.6113Z" fill="url(#paint0_linear_342_2387)"/>
</g>
<mask id="mask2_342_2387" style="mask-type:luminance" maskUnits="userSpaceOnUse" x="0" y="0" width="30" height="41">
<path d="M18.7488 0.5H3.38341C1.89207 0.5 0.671875 1.72727 0.671875 3.22727V37.7727C0.671875 39.2727 1.89207 40.5 3.38341 40.5H26.8834C28.3748 40.5 29.595 39.2727 29.595 37.7727V11.4091L18.7488 0.5Z" fill="white"/>
</mask>
<g mask="url(#mask2_342_2387)">
<path d="M7.90234 29.5909H22.3639V27.7727H7.90234V29.5909ZM7.90234 33.2273H18.7485V31.4091H7.90234V33.2273ZM7.90234 20.5V22.3182H22.3639V20.5H7.90234ZM7.90234 25.9545H22.3639V24.1364H7.90234V25.9545Z" fill="#F1F1F1"/>
</g>
<mask id="mask3_342_2387" style="mask-type:luminance" maskUnits="userSpaceOnUse" x="0" y="0" width="30" height="41">
<path d="M18.7488 0.5H3.38341C1.89207 0.5 0.671875 1.72727 0.671875 3.22727V37.7727C0.671875 39.2727 1.89207 40.5 3.38341 40.5H26.8834C28.3748 40.5 29.595 39.2727 29.595 37.7727V11.4091L18.7488 0.5Z" fill="white"/>
</mask>
<g mask="url(#mask3_342_2387)">
<path d="M18.75 0.5V8.68182C18.75 10.1886 19.9634 11.4091 21.4615 11.4091H29.5962L18.75 0.5Z" fill="#A1C2FA"/>
</g>
<mask id="mask4_342_2387" style="mask-type:luminance" maskUnits="userSpaceOnUse" x="0" y="0" width="30" height="41">
<path d="M18.7488 0.5H3.38341C1.89207 0.5 0.671875 1.72727 0.671875 3.22727V37.7727C0.671875 39.2727 1.89207 40.5 3.38341 40.5H26.8834C28.3748 40.5 29.595 39.2727 29.595 37.7727V11.4091L18.7488 0.5Z" fill="white"/>
</mask>
<g mask="url(#mask4_342_2387)">
<path d="M3.38341 0.5C1.89207 0.5 0.671875 1.72727 0.671875 3.22727V3.45455C0.671875 1.95455 1.89207 0.727273 3.38341 0.727273H18.7488V0.5H3.38341Z" fill="white" fill-opacity="0.2"/>
</g>
<mask id="mask5_342_2387" style="mask-type:luminance" maskUnits="userSpaceOnUse" x="0" y="0" width="30" height="41">
<path d="M18.7488 0.5H3.38341C1.89207 0.5 0.671875 1.72727 0.671875 3.22727V37.7727C0.671875 39.2727 1.89207 40.5 3.38341 40.5H26.8834C28.3748 40.5 29.595 39.2727 29.595 37.7727V11.4091L18.7488 0.5Z" fill="white"/>
</mask>
<g mask="url(#mask5_342_2387)">
<path d="M26.8834 40.2727H3.38341C1.89207 40.2727 0.671875 39.0454 0.671875 37.5454V37.7727C0.671875 39.2727 1.89207 40.5 3.38341 40.5H26.8834C28.3748 40.5 29.595 39.2727 29.595 37.7727V37.5454C29.595 39.0454 28.3748 40.2727 26.8834 40.2727Z" fill="#1A237E" fill-opacity="0.2"/>
</g>
<mask id="mask6_342_2387" style="mask-type:luminance" maskUnits="userSpaceOnUse" x="0" y="0" width="30" height="41">
<path d="M18.7488 0.5H3.38341C1.89207 0.5 0.671875 1.72727 0.671875 3.22727V37.7727C0.671875 39.2727 1.89207 40.5 3.38341 40.5H26.8834C28.3748 40.5 29.595 39.2727 29.595 37.7727V11.4091L18.7488 0.5Z" fill="white"/>
</mask>
<g mask="url(#mask6_342_2387)">
<path d="M21.4615 11.4092C19.9634 11.4092 18.75 10.1887 18.75 8.68188V8.90916C18.75 10.416 19.9634 11.6364 21.4615 11.6364H29.5962V11.4092H21.4615Z" fill="#1A237E" fill-opacity="0.1"/>
</g>
<path d="M18.7488 0.5H3.38341C1.89207 0.5 0.671875 1.72727 0.671875 3.22727V37.7727C0.671875 39.2727 1.89207 40.5 3.38341 40.5H26.8834C28.3748 40.5 29.595 39.2727 29.595 37.7727V11.4091L18.7488 0.5Z" fill="url(#paint1_radial_342_2387)"/>
</g>
<defs>
<linearGradient id="paint0_linear_342_2387" x1="522.249" y1="97.4091" x2="522.249" y2="1021.66" gradientUnits="userSpaceOnUse">
<stop stop-color="#1A237E" stop-opacity="0.2"/>
<stop offset="1" stop-color="#1A237E" stop-opacity="0.02"/>
</linearGradient>
<radialGradient id="paint1_radial_342_2387" cx="0" cy="0" r="1" gradientUnits="userSpaceOnUse" gradientTransform="translate(92.3016 79.1015) scale(4663.8 4663.8)">
<stop stop-color="white" stop-opacity="0.1"/>
<stop offset="1" stop-color="white" stop-opacity="0"/>
</radialGradient>
<clipPath id="clip0_342_2387">
<rect width="28.9231" height="40" fill="white" transform="translate(0.671875 0.5)"/>
</clipPath>
</defs>
</svg>
