<svg width="42" height="41" viewBox="0 0 42 41" fill="none" xmlns="http://www.w3.org/2000/svg">
<path d="M7.85871 0.5H34.3544C38.3715 0.5 41.6194 3.74786 41.6194 7.76496V33.235C41.6194 37.2521 38.3715 40.5 34.3544 40.5H7.85871C3.84161 40.5 0.59375 37.2521 0.59375 33.235V7.76496C0.59375 3.74786 3.84161 0.5 7.85871 0.5Z" fill="#001E36"/>
<path d="M9.82422 28.5512V10.9615C9.82422 10.8418 9.8755 10.7735 9.99516 10.7735C10.2858 10.7735 10.5593 10.7735 10.9524 10.7564C11.3627 10.7393 11.79 10.7393 12.2516 10.7222C12.7131 10.7051 13.2088 10.7051 13.7387 10.688C14.2687 10.6709 14.7815 10.6709 15.2943 10.6709C16.696 10.6709 17.8584 10.8418 18.8157 11.2008C19.6704 11.4914 20.4567 11.97 21.1063 12.6025C21.6533 13.1495 22.0806 13.8162 22.3541 14.5512C22.6105 15.2692 22.7473 16.0042 22.7473 16.7735C22.7473 18.2435 22.4054 19.4572 21.7217 20.4145C21.0379 21.3718 20.0806 22.0897 18.9695 22.5C17.8071 22.9273 16.5251 23.0812 15.1234 23.0812C14.7131 23.0812 14.4396 23.0812 14.2687 23.0641C14.0977 23.047 13.8584 23.047 13.5336 23.047V28.5341C13.5507 28.6538 13.4652 28.7564 13.3456 28.7735C13.3285 28.7735 13.3114 28.7735 13.2772 28.7735H10.0293C9.89259 28.7735 9.82422 28.7051 9.82422 28.5512ZM13.5507 14.0726V19.8162C13.79 19.8333 14.0123 19.8504 14.2174 19.8504H15.1234C15.79 19.8504 16.4567 19.7478 17.0892 19.5427C17.6362 19.3888 18.1148 19.0641 18.4909 18.6367C18.8499 18.2094 19.0208 17.6282 19.0208 16.876C19.0379 16.3461 18.9011 15.8162 18.6276 15.3547C18.337 14.9102 17.9268 14.5683 17.4311 14.3803C16.7986 14.1239 16.1148 14.0213 15.414 14.0384C14.9695 14.0384 14.5764 14.0384 14.2516 14.0555C13.9097 14.0384 13.6704 14.0555 13.5507 14.0726Z" fill="#31A8FF"/>
<path d="M33.414 18.7734C32.9012 18.4999 32.3542 18.3119 31.773 18.1922C31.1405 18.0555 30.508 17.97 29.8584 17.97C29.5166 17.9529 29.1576 18.0042 28.8328 18.0896C28.6106 18.1409 28.4226 18.2606 28.3029 18.4315C28.2174 18.5683 28.1661 18.7392 28.1661 18.8931C28.1661 19.0469 28.2345 19.2008 28.3371 19.3375C28.4909 19.5255 28.6961 19.6794 28.9183 19.799C29.3114 20.0042 29.7217 20.1922 30.132 20.3631C31.055 20.6708 31.9439 21.0982 32.7644 21.611C33.3285 21.97 33.7901 22.4486 34.1149 23.0298C34.3884 23.5768 34.5251 24.1751 34.508 24.7905C34.5251 25.5939 34.2858 26.3973 33.8414 27.064C33.3627 27.7478 32.6961 28.2777 31.9268 28.5854C31.0892 28.9443 30.0636 29.1324 28.8328 29.1324C28.0465 29.1324 27.2773 29.064 26.508 28.9102C25.9097 28.8076 25.3114 28.6196 24.7644 28.3631C24.6448 28.2948 24.5593 28.1751 24.5764 28.0384V25.064C24.5764 25.0127 24.5935 24.9443 24.6448 24.9102C24.6961 24.876 24.7473 24.8931 24.7986 24.9272C25.4653 25.3204 26.1661 25.5939 26.9183 25.7649C27.5678 25.9358 28.2516 26.0213 28.9354 26.0213C29.5849 26.0213 30.0465 25.9358 30.3542 25.7819C30.6277 25.6623 30.8157 25.3717 30.8157 25.064C30.8157 24.8247 30.679 24.6025 30.4055 24.3802C30.132 24.158 29.5679 23.9016 28.7302 23.5768C27.8584 23.2691 27.055 22.8589 26.3029 22.3461C25.773 21.97 25.3285 21.4743 25.0037 20.8931C24.7302 20.3461 24.5935 19.7478 24.6106 19.1495C24.6106 18.4144 24.8157 17.7136 25.1918 17.0811C25.6191 16.3973 26.2516 15.8503 26.9867 15.5084C27.7901 15.0982 28.7986 14.9102 30.0123 14.9102C30.7131 14.9102 31.4311 14.9614 32.132 15.064C32.6448 15.1324 33.1405 15.2691 33.602 15.4572C33.6704 15.4743 33.7388 15.5426 33.773 15.611C33.7901 15.6794 33.8072 15.7478 33.8072 15.8161V18.6025C33.8072 18.6708 33.773 18.7392 33.7217 18.7734C33.5679 18.8076 33.4824 18.8076 33.414 18.7734Z" fill="#31A8FF"/>
</svg>
